<?xml version="1.0" encoding="UTF-8"?><svg id="Layer_1" xmlns="http://www.w3.org/2000/svg" xmlns:xlink="http://www.w3.org/1999/xlink" viewBox="0 0 1920 494.8"><defs><style>.cls-1{fill:url(#linear-gradient);}.cls-2{fill:url(#linear-gradient-8);}.cls-3{fill:url(#linear-gradient-9);}.cls-4{fill:url(#linear-gradient-3);}.cls-5{fill:url(#linear-gradient-4);}.cls-6{fill:url(#linear-gradient-2);}.cls-7{fill:url(#linear-gradient-6);}.cls-8{fill:url(#linear-gradient-7);}.cls-9{fill:url(#linear-gradient-5);}.cls-10{fill:url(#linear-gradient-14);}.cls-11{fill:url(#linear-gradient-18);}.cls-12{fill:url(#linear-gradient-20);}.cls-13{fill:url(#linear-gradient-15);}.cls-14{fill:url(#linear-gradient-19);}.cls-15{fill:url(#linear-gradient-16);}.cls-16{fill:url(#linear-gradient-17);}.cls-17{fill:url(#linear-gradient-13);}.cls-18{fill:url(#linear-gradient-12);}.cls-19{fill:url(#linear-gradient-10);}.cls-20{fill:url(#linear-gradient-11);}</style><linearGradient id="linear-gradient" x1="-1250.31" y1="3489.2" x2="-1149.21" y2="3489.2" gradientTransform="translate(-766.81 -3344) rotate(-180) scale(1 -1)" gradientUnits="userSpaceOnUse"><stop offset="0" stop-color="#985151"/><stop offset="1" stop-color="#3a396a"/></linearGradient><linearGradient id="linear-gradient-2" x1="1121.75" y1="3489.2" x2="1222.95" y2="3489.2" gradientTransform="translate(-625.35 -3344)" gradientUnits="userSpaceOnUse"><stop offset="0" stop-color="#b55849"/><stop offset="1" stop-color="#ef7840"/></linearGradient><linearGradient id="linear-gradient-3" x1="-1371.01" y1="3558.7" x2="-1269.91" y2="3558.7" gradientTransform="translate(-766.81 -3344) rotate(-180) scale(1 -1)" gradientUnits="userSpaceOnUse"><stop offset="0" stop-color="#f07c40"/><stop offset="1" stop-color="#ca5e44"/></linearGradient><linearGradient id="linear-gradient-4" x1="1242.45" y1="3558.7" x2="1343.65" y2="3558.7" gradientTransform="translate(-625.35 -3344)" gradientUnits="userSpaceOnUse"><stop offset="0" stop-color="#f28b43"/><stop offset="1" stop-color="#f9b04b"/></linearGradient><linearGradient id="linear-gradient-5" x1="-1371.01" y1="3699.9" x2="-1269.91" y2="3699.9" gradientTransform="translate(-766.81 -3344) rotate(-180) scale(1 -1)" gradientUnits="userSpaceOnUse"><stop offset="0" stop-color="#f07c40"/><stop offset="1" stop-color="#ca5e44"/></linearGradient><linearGradient id="linear-gradient-6" x1="1242.45" y1="3699.9" x2="1343.65" y2="3699.9" gradientTransform="translate(-625.35 -3344)" gradientUnits="userSpaceOnUse"><stop offset="0" stop-color="#f28b43"/><stop offset="1" stop-color="#f9b04b"/></linearGradient><linearGradient id="linear-gradient-7" x1="-1129.71" y1="3699.9" x2="-1028.51" y2="3699.9" gradientTransform="translate(-766.81 -3344) rotate(-180) scale(1 -1)" gradientUnits="userSpaceOnUse"><stop offset="0" stop-color="#688cc7"/><stop offset="1" stop-color="#615aa3"/></linearGradient><linearGradient id="linear-gradient-8" x1="1001.15" y1="3699.9" x2="1102.25" y2="3699.9" gradientTransform="translate(-625.35 -3344)" gradientUnits="userSpaceOnUse"><stop offset="0" stop-color="#535197"/><stop offset="1" stop-color="#2f3976"/></linearGradient><linearGradient id="linear-gradient-9" x1="-1009.01" y1="3769.4" x2="-907.91" y2="3769.4" gradientTransform="translate(-766.81 -3344) rotate(-180) scale(1 -1)" gradientUnits="userSpaceOnUse"><stop offset="0" stop-color="#6ca9dc"/><stop offset="1" stop-color="#70c8f2"/></linearGradient><linearGradient id="linear-gradient-10" x1="880.55" y1="3769.4" x2="981.65" y2="3769.4" gradientTransform="translate(-625.35 -3344)" gradientUnits="userSpaceOnUse"><stop offset="0" stop-color="#6996ce"/><stop offset="1" stop-color="#6262a9"/></linearGradient><linearGradient id="linear-gradient-11" x1="-888.31" y1="3699.9" x2="-787.21" y2="3699.9" gradientTransform="translate(-766.81 -3344) rotate(-180) scale(1 -1)" gradientUnits="userSpaceOnUse"><stop offset="0" stop-color="#6ca9dc"/><stop offset="1" stop-color="#70c8f2"/></linearGradient><linearGradient id="linear-gradient-12" x1="759.75" y1="3699.9" x2="860.95" y2="3699.9" gradientTransform="translate(-625.35 -3344)" gradientUnits="userSpaceOnUse"><stop offset="0" stop-color="#70c8f2"/><stop offset="1" stop-color="#6ca9dc"/></linearGradient><linearGradient id="linear-gradient-13" x1="-888.31" y1="3558.7" x2="-787.21" y2="3558.7" gradientTransform="translate(-766.81 -3344) rotate(-180) scale(1 -1)" gradientUnits="userSpaceOnUse"><stop offset="0" stop-color="#70c8f2"/><stop offset="1" stop-color="#70c8f2"/></linearGradient><linearGradient id="linear-gradient-14" x1="759.75" y1="3558.7" x2="860.95" y2="3558.7" gradientTransform="translate(-625.35 -3344)" gradientUnits="userSpaceOnUse"><stop offset="0" stop-color="#70c8f2"/><stop offset="1" stop-color="#6db5e4"/></linearGradient><linearGradient id="linear-gradient-15" x1="-1009.01" y1="3489.2" x2="-907.91" y2="3489.2" gradientTransform="translate(-766.81 -3344) rotate(-180) scale(1 -1)" gradientUnits="userSpaceOnUse"><stop offset="0" stop-color="#6ca9dc"/><stop offset="1" stop-color="#70c8f2"/></linearGradient><linearGradient id="linear-gradient-16" x1="880.45" y1="3489.2" x2="981.55" y2="3489.2" gradientTransform="translate(-625.35 -3344)" gradientUnits="userSpaceOnUse"><stop offset="0" stop-color="#6996ce"/><stop offset="1" stop-color="#6365ac"/></linearGradient><linearGradient id="linear-gradient-17" x1="-1129.71" y1="3398.05" x2="-1062.41" y2="3398.05" gradientTransform="translate(-766.81 -3344) rotate(-180) scale(1 -1)" gradientUnits="userSpaceOnUse"><stop offset="0" stop-color="#397280"/><stop offset="1" stop-color="#2d4374"/></linearGradient><linearGradient id="linear-gradient-18" x1="1001.15" y1="3397.85" x2="1068.45" y2="3397.85" gradientTransform="translate(-625.35 -3344)" gradientUnits="userSpaceOnUse"><stop offset="0" stop-color="#418684"/><stop offset="1" stop-color="#4eb090"/></linearGradient><linearGradient id="linear-gradient-19" x1="-1250.51" y1="3792.85" x2="-1183.21" y2="3792.85" gradientTransform="translate(-766.81 -3344) rotate(-180) scale(1 -1)" gradientUnits="userSpaceOnUse"><stop offset="0" stop-color="#6abc74"/><stop offset="1" stop-color="#52b790"/></linearGradient><linearGradient id="linear-gradient-20" x1="1122.05" y1="3792.65" x2="1189.35" y2="3792.65" gradientTransform="translate(-625.35 -3344)" gradientUnits="userSpaceOnUse"><stop offset="0" stop-color="#76be65"/><stop offset="1" stop-color="#8dc24b"/></linearGradient></defs><path d="m908.2,251.2c.6-1.3.8-2.5.8-4s-.3-2.7-.8-4c-.6-1.3-1.3-2.3-2.2-3.2-1-.9-2-1.7-3.3-2.2-1.3-.6-2.5-.8-4-.8s-2.6.3-3.9.8-2.3,1.3-3.2,2.2c-1,.9-1.7,1.9-2.2,3.2-.6,1.3-.8,2.5-.8,4s.3,2.7.8,4c.6,1.3,1.3,2.3,2.2,3.2,1,1,2,1.7,3.2,2.2,1.3.6,2.5.8,3.9.8s2.7-.3,4-.8c1.3-.6,2.3-1.3,3.3-2.2.8-1,1.6-2.1,2.2-3.2Z"/><path d="m1136.8,215.4c4,5.1,10.9,7.6,20.8,7.6,1.7,0,3.4-.1,5.1-.3s3.3-.6,4.9-1.1c1.6-.6,3.1-1.4,4.5-2.3s2.7-2.3,4-3.9c.9,1.2,1.9,2.2,3,3.2s2.4,1.8,3.9,2.3c1.5.7,3.2,1.2,5.2,1.5,1.9.4,4.2.6,6.8.6h21.8v-57.4h-18.8v40.8h-8.8c-2,0-3.6-.2-4.9-.6-1.3-.4-2.2-1.1-3-1.8-.8-.8-1.3-1.8-1.5-3.1-.3-1.3-.4-2.7-.4-4.5v-24.5h-18.9v27.6c0,1.5-.2,2.6-.7,3.5s-1.1,1.6-1.8,2.1c-.8.5-1.8.9-2.9,1.1-1.2.2-2.4.3-3.8.3-3.7,0-6.3-.9-8-2.7s-2.4-4.3-2.4-7.4v-24.5h-18.9v27.6c0,1.6-.2,2.8-.6,3.8s-1,1.7-1.8,2.1c-.9.5-2,.8-3.4.9-1.5.1-3.2.2-5.3.2h-70.1c-1,0-1.8-.3-2.7-.8-.9-.6-1.8-1.5-2.9-2.7s-2.2-2.9-3.6-5.1c-1.4-2-2.9-4.7-4.9-7.8l-17.9-29.3-16.9,10.9,13.2,19.4c1.3,1.8,2.2,3.4,3.1,4.6.8,1.3,1.5,2.3,1.9,3.2.5.9.9,1.6,1.1,2.2.2.6.3,1.2.3,1.8,0,1.4-.6,2.2-1.7,2.7-1.1.5-2.8.8-5.1.8h-28.6v16.5h25.1c1.8,0,3.6-.1,5.4-.2,1.8-.1,3.6-.4,5.3-.8,1.8-.4,3.4-1.1,5-1.9,1.6-.9,3.1-2.1,4.5-3.7.8,1.4,1.7,2.4,2.6,3.3,1,.9,1.9,1.6,2.9,2,1.1.5,2.1.9,3.2,1.1,1.2.2,2.3.3,3.6.3h76.6c3.2,0,6.1-.1,8.8-.3,2.6-.2,5.1-.5,7.2-1.1,2.1-.5,4.1-1.3,5.7-2.2,2-.9,3.5-2.3,4.8-4h0Z"/><rect x="1863.4" y="123.2" width="18.9" height="99.9"/><path d="m1886.2,101.5h-7.6c-2.2,0-3.8-.5-4.7-1.4-.8-.9-1.3-2-1.3-3.3,0-1.4.4-2.4,1.2-3.2.8-.9,2.1-1.3,4-1.3,1,0,2.7.3,5.3.8v-9.5c-1.1-.4-2.1-.7-3.4-1-1.2-.3-2.6-.4-4.2-.4s-3.2.3-4.8.9c-1.6.6-3,1.4-4.2,2.5-1.3,1.1-2.2,2.5-3,4.1-.8,1.7-1.2,3.6-1.2,5.7,0,.9.1,1.9.3,3.1s.6,2.1,1.1,2.9h-5.7v10.1h28l.2-10h0Z"/><path d="m1278,140.9c1,1,2,1.7,3.2,2.2,1.3.5,2.5.8,4,.8s2.7-.3,4-.8,2.3-1.3,3.2-2.2c.9-1,1.7-2,2.2-3.2.6-1.3.8-2.5.8-4s-.3-2.7-.8-4c-.6-1.3-1.3-2.3-2.2-3.2-.9-1-1.9-1.7-3.2-2.2-1.3-.6-2.5-.8-4-.8s-2.7.3-4,.8c-1.3.6-2.3,1.3-3.2,2.2-1,1-1.7,2-2.2,3.2-.6,1.3-.8,2.5-.8,4s.3,2.7.8,4c.6,1.2,1.3,2.2,2.2,3.2Z"/><path d="m822.3,218.4c1.9,1.7,4.3,2.8,7,3.6s5.7,1.1,8.9,1.1h90v-57.4h-18.9v40.8h-67.6c-1.2,0-2.1-.1-3-.3s-1.6-.6-2.1-1.1c-.6-.6-1-1.4-1.3-2.3-.3-1.1-.5-2.4-.5-4.1v-75.5h-18.9v78c0,4.2.6,7.7,1.7,10.5,1.2,2.8,2.8,5,4.7,6.7h0Z"/><rect x="945.4" y="123.2" width="18.9" height="99.9"/><path d="m922.1,237c-1.4,0-2.7.3-4,.8-1.3.6-2.3,1.3-3.2,2.2-1,.9-1.7,1.9-2.2,3.2s-.8,2.5-.8,4,.3,2.7.8,4,1.3,2.3,2.2,3.2c1,1,2,1.7,3.2,2.2,1.3.6,2.5.8,4,.8s2.7-.3,4-.8c1.3-.6,2.3-1.3,3.2-2.2,1-1,1.7-2,2.2-3.2.6-1.3.8-2.5.8-4s-.3-2.7-.8-4c-.6-1.3-1.3-2.3-2.2-3.2-1-.9-2-1.7-3.2-2.2-1.3-.5-2.6-.8-4-.8Z"/><path d="m1701.7,204.9c0-1.5-.2-3.1-.6-4.7-.4-1.7-1.1-3.4-1.8-5.3-.9-1.8-1.9-4-3.2-6.2-1.3-2.2-2.7-4.8-4.5-7.5l-12.5-20.3-16.9,10.9,11.4,17.1c1.8,2.7,3.3,4.9,4.5,6.5s1.9,2.9,2.5,3.9,1,1.8,1.1,2.3c.2.6.3,1.2.3,1.8,0,1.2-.6,1.9-1.8,2.4-1.3.5-3,.7-5.3.7h-28.1v16.5h34.8c3.6,0,6.6-.5,9.2-1.5,2.5-1,4.7-2.2,6.3-3.9,1.7-1.7,2.9-3.6,3.7-5.8.5-2.2.9-4.5.9-6.9h0Z"/><path d="m1408.3,256.6c1.3.6,2.5.8,4,.8s2.7-.3,4-.8c1.3-.6,2.3-1.3,3.2-2.2.9-1,1.7-2,2.2-3.2.6-1.3.8-2.5.8-4s-.3-2.7-.8-4c-.6-1.3-1.3-2.3-2.2-3.2-1-.9-1.9-1.7-3.2-2.2-1.3-.6-2.5-.8-4-.8s-2.7.3-4,.8c-1.3.6-2.3,1.3-3.2,2.2-1,.9-1.7,1.9-2.2,3.2-.6,1.3-.8,2.5-.8,4s.3,2.7.8,4c.6,1.3,1.3,2.3,2.2,3.2s1.9,1.6,3.2,2.2Z"/><path d="m1301.5,140.9c1,1,2,1.7,3.2,2.2,1.3.5,2.5.8,4,.8s2.7-.3,4-.8,2.3-1.3,3.2-2.2c.9-1,1.7-2,2.2-3.2.6-1.3.8-2.5.8-4s-.3-2.7-.8-4c-.6-1.3-1.3-2.3-2.2-3.2-.9-1-1.9-1.7-3.2-2.2-1.3-.6-2.5-.8-4-.8s-2.7.3-4,.8c-1.3.6-2.3,1.3-3.2,2.2-1,1-1.7,2-2.2,3.2-.6,1.3-.8,2.5-.8,4s.3,2.7.8,4c.6,1.2,1.4,2.2,2.2,3.2Z"/><path d="m1723.2,218.4c1.9,1.7,4.3,2.8,7,3.6,2.7.7,5.7,1.1,8.9,1.1h83.2c3.6,0,6.7-.4,9.3-1.2,2.6-.8,4.9-1.8,6.8-3.1,1.8-1.3,3.4-2.7,4.7-4.4,1.2-1.7,2.1-3.2,2.8-4.9s1.2-3.2,1.5-4.8.4-2.8.4-4c0-1.8-.1-3.5-.3-5.3-.2-1.8-.6-3.7-1.3-5.6-.7-1.9-1.7-3.9-2.9-5.9s-3-4.3-5.2-6.5c-2.1-2.2-4.9-4.7-8.1-7.2s-7-5.2-11.5-7.9v-.5l28.1-13.6v-21.5l-49.4,26.3v20c4.9,2.2,9.2,4.6,13.1,7s7.2,4.9,9.8,7.3c2.7,2.4,4.8,4.8,6.2,7,1.5,2.2,2.1,4.2,2.1,5.9,0,2-.7,3.7-2,4.8-1.4,1.1-3.5,1.6-6.4,1.6h-77.6c-1.2,0-2.1-.1-3-.3s-1.6-.6-2.1-1.1c-.6-.6-1-1.4-1.3-2.3-.3-1.1-.5-2.4-.5-4.1v-75.5h-18.9v78c0,4.2.6,7.7,1.7,10.5,1.4,2.7,2.9,4.9,4.9,6.6h0Z"/><path d="m1628.2,237c-1.5,0-2.7.3-4,.8-1.3.6-2.3,1.3-3.2,2.2-1,.9-1.7,1.9-2.2,3.2s-.8,2.5-.8,4,.3,2.7.8,4,1.3,2.3,2.2,3.2c1,1,2,1.7,3.2,2.2,1.3.6,2.5.8,4,.8s2.7-.3,4-.8c1.3-.6,2.3-1.3,3.2-2.2,1-1,1.7-2,2.2-3.2.6-1.3.8-2.5.8-4s-.3-2.7-.8-4c-.6-1.3-1.3-2.3-2.2-3.2-1-.9-2-1.7-3.2-2.2-1.3-.5-2.5-.8-4-.8Z"/><path d="m1614.3,243.2c-.6-1.3-1.3-2.3-2.2-3.2-1-.9-2-1.7-3.3-2.2-1.3-.6-2.5-.8-4-.8s-2.6.3-3.9.8c-1.3.6-2.3,1.3-3.2,2.2-1,.9-1.7,1.9-2.2,3.2-.6,1.3-.8,2.5-.8,4s.3,2.7.8,4c.6,1.3,1.3,2.3,2.2,3.2,1,1,2,1.7,3.2,2.2,1.3.6,2.5.8,3.9.8s2.7-.3,4-.8c1.3-.6,2.3-1.3,3.3-2.2,1-1,1.8-2,2.2-3.2.6-1.3.8-2.5.8-4,0-1.5-.3-2.7-.8-4Z"/><path d="m1384.8,256.6c1.3.6,2.5.8,4,.8s2.7-.3,4-.8c1.3-.6,2.3-1.3,3.2-2.2.9-1,1.7-2,2.2-3.2.6-1.3.8-2.5.8-4s-.3-2.7-.8-4c-.6-1.3-1.3-2.3-2.2-3.2-1-.9-1.9-1.7-3.2-2.2-1.3-.6-2.5-.8-4-.8s-2.7.3-4,.8c-1.3.6-2.3,1.3-3.2,2.2-1,.9-1.7,1.9-2.2,3.2-.6,1.3-.8,2.5-.8,4s.3,2.7.8,4c.6,1.3,1.3,2.3,2.2,3.2s2,1.6,3.2,2.2Z"/><path d="m1537.2,214c1,1.9,2,3.4,3.1,4.6s2.2,2,3.3,2.7c1.2.7,2.2,1.1,3.4,1.3.4.1.8.1,1.2.1h.1c.7.1,1.4.2,2.1.2h84v-57.4h-18.9v40.8h-65.2c-.6,0-1.3-.1-2.1-.4-.9-.2-1.7-.6-2.5-1.1-.9-.5-1.7-1.2-2.4-1.9-.8-.8-1.4-1.8-1.8-2.9.1-.7.1-1.3.1-1.9v-2c0-4.5-.7-8.6-2.1-12.2s-3.4-6.7-5.8-9.2-5.3-4.4-8.6-5.7c-3.3-1.4-6.7-2-10.4-2-2.6,0-5.3.4-8.2,1.1s-5.6,2-8.4,4.1c-2.8,2-5.4,4.9-8.1,8.6-2.6,3.7-5,8.5-7.2,14.3-.9,2.3-1.8,4.2-2.5,5.7-.8,1.5-1.7,2.6-2.6,3.4-1,.8-1.9,1.4-3,1.8-1.1.3-2.2.5-3.5.5h-44.8c-2.3,0-4.4-.2-5.9-.6-1.7-.4-2.9-1-3.9-1.8s-1.7-1.8-2.1-3.1-.7-2.8-.7-4.7v-30.8h-18.7v32.8c0,1.8-.2,3.2-.4,4.4-.3,1.1-.8,1.9-1.5,2.5s-1.7,1-2.7,1.2c-1.1.2-2.5.3-4.1.3h-60.9c-1,0-1.8-.1-2.4-.3-.7-.2-1.2-.5-1.5-1-.4-.5-.6-1.1-.7-1.8s-.2-1.7-.2-2.8v-43h-24.7c-3.5,0-7,.5-10.5,1.6s-6.8,2.7-9.7,5c-2.9,2.3-5.3,5.3-7.2,8.9-1.8,3.6-2.8,8.1-2.8,13.3,0,3.6.5,6.7,1.4,9.4s2.1,5.1,3.6,7,3.2,3.6,5.2,4.9c1.9,1.3,3.9,2.2,5.9,3s4.1,1.3,6,1.6,3.8.4,5.3.4c1.8,0,3.4-.1,5.2-.4,1.8-.2,3.4-.5,5.1-.9.8,2.3,1.8,4.2,3.2,5.7,1.4,1.5,3,2.7,4.9,3.6,1.8.9,3.8,1.5,5.9,1.8s4.4.5,6.7.5h65.5c1.9,0,3.9-.1,5.8-.2,1.9-.1,3.9-.5,5.7-1s3.6-1.3,5.2-2.2,2.9-2.3,4.1-4.1c1,1.6,2,2.9,3.3,3.9s2.6,1.8,4.1,2.2c1.5.5,2.9.9,4.4,1.1s2.9.3,4.4.3h49.1c1.6,0,3-.1,4.4-.1,1.4-.1,2.7-.3,4-.7s2.5-1,3.8-1.8,2.5-1.8,3.8-3.3c4.2,2.8,8.3,4.8,12.3,5.9,3.9,1.1,7.8,1.7,11.7,1.7,5.1,0,9.4-1,13.1-2.8,3.4-2.1,6.2-4.8,8.3-8.1h0Zm-235.7-18.8c-1.4.5-2.7.8-4.1.9-1.3.1-2.5.1-3.7.1-2,0-3.7-.3-5.1-1s-2.3-1.5-3.1-2.5c-.8-1.1-1.3-2.1-1.6-3.4-.3-1.3-.4-2.5-.4-3.8,0-3.1.9-5.5,2.6-7.4,1.8-1.8,4.4-2.7,8.1-2.7h7.2l.1,19.8h0Zm218.8,9.7c-1.7,1.8-4.1,2.6-7.1,2.6-2.4,0-4.9-.4-7.3-1.3-2.4-.9-4.6-1.9-6.6-3.2.8-3.3,1.8-6.1,2.9-8.5s2.3-4.4,3.6-5.9c1.3-1.6,2.5-2.7,3.8-3.5s2.5-1.2,3.7-1.2c1.8,0,3.2.4,4.4,1.1,1.2.8,2.2,1.7,3,2.9s1.4,2.5,1.7,4c.4,1.5.5,2.9.5,4.3-.1,4-.9,6.9-2.6,8.7h0Z"/><path d="m884.6,348.3c-1.8-2-3.8-3.8-6-5.2-2.2-1.4-4.4-2.5-6.6-3.4-2.2-.9-4.3-1.6-6.2-2.1s-3.6-.9-4.8-1.2c-6.2-1.6-11.3-2.9-15.2-4s-6.9-2-9-3.1c-2.2-1-3.7-2-4.4-3.3-.8-1.3-1.1-2.8-1.1-4.8s.5-3.8,1.4-5.3,2.1-2.6,3.6-3.6c1.5-.9,3-1.6,4.9-1.9,1.8-.4,3.5-.6,5.3-.6,2.6,0,5.1.2,7.4.7,2.3.5,4.4,1.3,6.1,2.4,1.8,1.1,3.2,2.6,4.3,4.6,1.1,1.9,1.8,4.4,1.8,7.4h21.3c0-5.7-1.1-10.7-3.3-14.8-2.2-4.1-5.2-7.4-8.8-10-3.7-2.6-8-4.5-12.8-5.6-4.8-1.2-9.8-1.8-15.1-1.8-4.5,0-8.9.6-13.4,1.8-4.5,1.3-8.5,3.1-12.1,5.5-3.6,2.5-6.4,5.6-8.6,9.4-2.2,3.8-3.3,8.3-3.3,13.3,0,4.7.9,8.6,2.6,11.8,1.8,3.2,4,5.8,6.8,8s5.9,3.9,9.5,5.3c3.5,1.4,7.2,2.5,10.9,3.4,3.6,1.1,7.2,1.9,10.8,2.7s6.7,1.8,9.5,2.9c2.8,1.2,5.1,2.6,6.8,4.3,1.8,1.7,2.6,3.9,2.6,6.6,0,2.5-.7,4.6-1.9,6.2-1.3,1.7-2.9,2.9-4.9,3.9s-4.1,1.6-6.3,1.8c-2.2.3-4.4.5-6.3.5-3,0-5.8-.4-8.5-1.1-2.6-.7-5-1.8-7-3.2-2-1.5-3.6-3.3-4.9-5.6s-1.8-5.2-1.8-8.6h-21.3c-.1,6.1,1.1,11.5,3.4,15.9,2.4,4.5,5.5,8.2,9.4,11.1s8.5,5.1,13.6,6.4c5.2,1.4,10.5,2.1,16,2.1,6.8,0,12.8-.8,18-2.4s9.5-3.9,13-6.7c3.5-2.8,6.1-6.2,7.9-10.1,1.8-3.9,2.6-8.2,2.6-12.7,0-3.7-.6-7-1.7-9.8-.9-2.5-2.3-5.1-4.2-7.1h0Z"/><path d="m979.1,307.6c-4.1-4.1-8.8-7.2-14.4-9.2-5.5-2-11.6-3.1-18-3.1h-43.1v99.9h43.1c7.7,0,14.3-1.3,19.9-3.9,5.6-2.5,10.4-6,14.1-10.5,3.8-4.5,6.6-9.8,8.5-15.9s2.8-12.8,2.8-20.1c0-8.3-1.2-15.6-3.4-21.7-2.2-6.3-5.4-11.5-9.5-15.5h0Zm-11,53.1c-1.4,3.8-3.3,6.9-5.5,9.3-2.3,2.4-5,4.1-8,5.1-3,1.1-6,1.6-9.2,1.6h-19.5v-62.9h15.7c5.4,0,9.9.8,13.6,2.3,3.7,1.6,6.6,3.8,8.8,6.6,2.2,2.9,3.9,6.4,4.9,10.4,1,4.1,1.5,8.6,1.5,13.6-.3,5.5-1,10.1-2.3,14h0Z"/><path d="m1034.6,295.3l-37.9,99.9h22.3l7.9-22.3h37.3l7.6,22.3h22.8l-37.3-99.9h-22.7Zm-2.1,61.3l13-36.7h.3l12.5,36.7h-25.8Z"/><rect x="1103.1" y="295.3" width="22" height="99.9"/><path d="m1171.6,295.3l-37.9,99.9h22.3l7.9-22.3h37.3l7.6,22.3h22.8l-37.4-99.9h-22.6Zm-2.1,61.3l13-36.7h.3l12.5,36.7h-25.8Z"/><path d="m1306.2,295.3l-37.9,99.9h22.3l7.9-22.3h37.3l7.6,22.3h22.8l-37.3-99.9h-22.7Zm-2,61.3l13-36.7h.3l12.5,36.7h-25.8Z"/><path d="m1417.7,378.1c-2.6,2.6-6.2,4-10.9,4-3.1,0-5.7-.7-7.9-2.1-2.1-1.4-3.9-3.2-5.1-5.3-1.3-2.2-2.1-4.7-2.7-7.4-.6-2.7-.9-5.3-.9-8s.3-5.3.9-8.1c.6-2.8,1.6-5.3,2.9-7.6s3.1-4.2,5.3-5.5c2.1-1.5,4.8-2.1,8-2.1,8.5,0,13.3,4.2,14.7,12.4h19.4c-.3-4.6-1.5-8.6-3.4-12.1s-4.6-6.3-7.6-8.6c-3.1-2.2-6.6-4-10.5-5.1-4-1.1-8.1-1.7-12.3-1.7-5.8,0-11.1,1-15.7,2.9s-8.5,4.7-11.6,8.2c-3.2,3.5-5.5,7.7-7.2,12.4-1.7,4.8-2.4,10-2.4,15.6s.9,10.4,2.6,14.9c1.8,4.5,4.3,8.5,7.4,11.8,3.2,3.3,7,5.8,11.5,7.7,4.5,1.8,9.4,2.7,15,2.7,9.6,0,17.5-2.5,23.6-7.6s9.9-12.4,11.2-22h-19.2c-.9,4.4-2.6,8-5.1,10.6h0Z"/><path d="m1517.8,379v-37.6c0-4.3-1-7.8-2.9-10.5s-4.5-4.8-7.6-6.3-6.5-2.5-10.2-3-7.4-.8-11.1-.8c-4.1,0-8.1.4-12.1,1.2-3.9.8-7.5,2.1-10.6,4-3.2,1.8-5.7,4.4-7.9,7.4-2,3.1-3.2,6.9-3.5,11.6h19.8c.4-3.9,1.8-6.7,4-8.4,2.2-1.7,5.3-2.5,9.1-2.5,1.8,0,3.4.1,5,.4,1.6.2,2.9.7,4.1,1.4s2.1,1.7,2.8,2.9c.7,1.3,1.1,2.9,1.1,5.1s-.7,3.6-1.9,4.7c-1.3,1.1-3,1.8-5.3,2.4-2.2.6-4.7,1-7.5,1.3s-5.7.7-8.8,1.1c-3.1.5-6,1.1-9,1.8-2.9.8-5.5,1.9-7.9,3.6-2.3,1.6-4.2,3.7-5.5,6.4-1.4,2.6-2.1,6-2.1,10.1,0,3.7.6,6.9,1.8,9.6,1.3,2.7,3,5,5.3,6.7,2.2,1.8,4.9,3.1,7.9,4s6.2,1.4,9.6,1.4c4.5,0,8.8-.7,13.1-2s8.1-3.7,11.2-6.9c.1,1.3.3,2.4.5,3.6s.6,2.3.9,3.4h20.1c-1-1.5-1.6-3.7-1.9-6.7-.3-3-.5-6.2-.5-9.4h0Zm-19.9-11.8c0,1.1-.1,2.6-.4,4.5-.2,1.8-.9,3.7-1.8,5.5-1.1,1.8-2.6,3.4-4.8,4.7-2.1,1.3-5.2,1.9-9,1.9-1.6,0-3.1-.1-4.6-.4s-2.8-.8-3.9-1.5-2-1.7-2.6-2.8c-.7-1.2-1-2.7-1-4.6,0-1.8.3-3.3,1-4.6.7-1.3,1.6-2.2,2.6-3.1,1.1-.8,2.3-1.5,3.7-1.8,1.4-.5,2.9-.9,4.5-1.1,1.5-.3,3-.5,4.7-.7s3.2-.4,4.6-.7c1.5-.3,2.8-.6,4.1-1.1,1.3-.4,2.3-1,3.1-1.8l-.2,7.6h0Z"/><path d="m1583.8,331.7h-.3c-2.2-3.5-5.3-6.2-9.1-8.1-3.9-1.8-8-2.7-12.3-2.7-5.3,0-10,1.1-14,3.1-4,2.1-7.4,4.9-10,8.4-2.6,3.4-4.7,7.4-6,12-1.4,4.6-2,9.2-2,14s.7,9.9,2,14.5c1.4,4.7,3.4,8.8,6,12.3,2.6,3.6,6,6.4,10,8.6,4.1,2.1,8.8,3.2,14.3,3.2,4.7,0,8.8-.9,12.7-2.6,3.8-1.8,6.9-4.6,9.2-8.6h.3v9.2h18.9v-99.7h-19.8l.1,36.4h0Zm-.2,35.7c-.6,2.8-1.5,5.3-2.8,7.5s-3,3.9-5.3,5.3c-2.2,1.3-5,1.9-8.2,1.9s-5.7-.7-7.9-2c-2.2-1.4-4-3.1-5.4-5.3-1.5-2.2-2.5-4.7-3.1-7.5-.7-2.8-1-5.5-1-8.4s.3-5.8.9-8.6c.6-2.7,1.6-5.2,2.9-7.4,1.4-2.1,3.1-3.9,5.3-5.2,2.2-1.3,5-1.9,8.3-1.9s5.8.7,8.1,1.9c2.2,1.3,4,3,5.3,5.1,1.4,2.1,2.3,4.6,2.9,7.4s.9,5.6.9,8.6c.1,2.9-.3,5.8-.9,8.6h0Z"/><path d="m1679.4,334c-2.9-4-6.7-7.2-11.3-9.5-4.6-2.4-9.9-3.6-16-3.6-5.5,0-10.5,1-15.1,2.9s-8.4,4.7-11.7,8.1c-3.3,3.4-5.7,7.4-7.6,12.1-1.8,4.7-2.6,9.7-2.6,15.1s.9,10.7,2.6,15.4c1.8,4.7,4.2,8.7,7.4,12.1,3.2,3.4,7,5.9,11.6,7.9,4.6,1.8,9.7,2.8,15.4,2.8,8.2,0,15.2-1.9,21-5.7,5.7-3.8,10-10,12.8-18.6h-17.5c-.7,2.2-2.4,4.4-5.3,6.4s-6.3,3-10.3,3c-5.5,0-9.9-1.5-12.8-4.4s-4.6-7.6-4.9-13.9h52.1c.4-5.5-.1-11-1.4-16-1.4-5.4-3.5-10-6.4-14.1h0Zm-44.5,17.2c.1-1.4.4-3,.9-4.8s1.4-3.4,2.6-5.1c1.3-1.6,2.9-2.9,5.1-4s4.8-1.6,7.9-1.6c4.9,0,8.5,1.3,10.9,3.9s4.1,6.4,5,11.5l-32.4.1h0Z"/><path d="m1802.4,326.7c-2.3-2-5.2-3.5-8.4-4.5-3.3-1-6.8-1.4-10.6-1.4-5.1,0-9.4,1.3-13,3.6-3.7,2.4-6.6,5.3-8.8,8.4-1.9-4.4-4.9-7.5-8.6-9.3-3.8-1.8-8-2.7-12.5-2.7s-8.9,1.1-12.6,3.1-6.8,5-9.4,8.7h-.3v-9.8h-18.8v72.2h19.8v-41.9c0-3.5.5-6.4,1.6-8.6s2.2-3.9,3.7-5.1,2.9-1.9,4.4-2.4c1.5-.4,2.7-.6,3.8-.6,3.2,0,5.5.6,7.2,1.6,1.7,1.1,2.8,2.5,3.5,4.3s1.1,3.7,1.2,5.8.1,4.3.1,6.3v40.6h19.8v-40.3c0-2.2.2-4.5.5-6.6.3-2.2,1-4.2,1.9-5.8,1-1.8,2.3-3.1,4.1-4.2,1.8-1.1,4-1.6,6.8-1.6s5.1.5,6.6,1.4c1.7,1,2.9,2.2,3.7,3.8.9,1.6,1.4,3.4,1.6,5.5s.3,4.4.3,6.9v40.9h19.8v-48.4c0-4.7-.7-8.7-1.9-12-1.3-3.1-3.1-5.9-5.5-7.9h0Z"/><path d="m1870.8,322.8l-15.8,49.5h-.3l-16.3-49.5h-21.4l25.5,67.8c.6,1.4.9,2.9.9,4.4,0,1.6-.3,2.9-.9,4.3-.6,1.3-1.5,2.4-2.6,3.3-1.2.9-2.6,1.5-4.3,1.6-1.9.1-3.9.1-5.8-.1s-3.9-.4-5.7-.6v16.3c2,.2,4.1.4,6,.5s4.1.2,6,.2c6.8,0,12.2-1.3,15.9-3.9,3.8-2.5,6.8-6.7,8.9-12.5l30.2-81.4-20.3.1h0Z"/><polygon class="cls-1" points="483.5 204.3 382.4 144.4 483.5 86.1 483.5 204.3"/><polygon class="cls-6" points="496.4 204.3 597.6 144.4 496.4 86.1 496.4 204.3"/><polygon class="cls-4" points="604.2 273.8 503.1 213.9 604.2 155.6 604.2 273.8"/><polygon class="cls-5" points="617.1 273.8 718.3 213.9 617.1 155.6 617.1 273.8"/><polygon class="cls-9" points="604.2 415 503.1 355.1 604.2 296.8 604.2 415"/><polygon class="cls-7" points="617.1 415 718.3 355.1 617.1 296.8 617.1 415"/><polygon class="cls-8" points="362.9 415 261.7 355.1 362.9 296.8 362.9 415"/><polygon class="cls-2" points="375.8 415 476.9 355.1 375.8 296.8 375.8 415"/><polygon class="cls-3" points="242.2 484.5 141.1 424.6 242.2 366.3 242.2 484.5"/><polygon class="cls-19" points="255.2 484.5 356.3 424.6 255.2 366.3 255.2 484.5"/><polygon class="cls-20" points="121.5 415 20.4 355.1 121.5 296.8 121.5 415"/><polygon class="cls-18" points="134.4 415 235.6 355.1 134.4 296.8 134.4 415"/><polygon class="cls-17" points="121.5 273.8 20.4 213.9 121.5 155.6 121.5 273.8"/><polygon class="cls-10" points="134.4 273.8 235.6 213.9 134.4 155.6 134.4 273.8"/><polygon class="cls-13" points="242.2 204.3 141.1 144.4 242.2 86.1 242.2 204.3"/><polygon class="cls-15" points="255.1 204.3 356.2 144.4 255.1 86.1 255.1 204.3"/><polygon class="cls-16" points="362.9 93.4 295.6 53.5 362.9 14.7 362.9 93.4"/><polygon class="cls-11" points="375.8 93.2 443.1 53.3 375.8 14.5 375.8 93.2"/><polygon class="cls-14" points="483.7 488.2 416.4 448.3 483.7 409.5 483.7 488.2"/><polygon class="cls-12" points="496.7 488 564 448.1 496.7 409.3 496.7 488"/></svg>